<?xml version="1.0" encoding="UTF-8"?>
<svg id="_图层_1" data-name="图层 1" xmlns="http://www.w3.org/2000/svg" viewBox="0 0 280.63 280.63">
  <defs>
    <style>
      .cls-1 {
        fill: #dcdae9;
      }

      .cls-2 {
        fill: #534588;
      }

      .cls-3 {
        fill: #fff;
      }
    </style>
  </defs>
  <g>
    <path class="cls-2" d="M140.31,265.04c-68.77,0-124.72-55.95-124.72-124.72S71.54,15.59,140.31,15.59s124.72,55.95,124.72,124.72-55.95,124.72-124.72,124.72ZM140.31,21.71c-65.4,0-118.6,53.2-118.6,118.6s53.2,118.6,118.6,118.6,118.6-53.2,118.6-118.6S205.71,21.71,140.31,21.71Z"/>
    <path class="cls-1" d="M100.85,58.49c.61-.56,1.23-1.11,1.85-1.64l-5.93-13.15-2.24-4.97c-.88.39-1.74.8-2.61,1.22l2.36,4.93,6.57,13.62ZM86.16,49.27l9.01,15.14c.23-.28.45-.56.69-.84.3-.34.61-.66.91-.99l-8.23-14.69-2.69-4.77c-.83.46-1.67.94-2.49,1.44l2.78,4.71h.02ZM150.92,34.88l.54-5.45c-.96-.09-1.91-.19-2.87-.25l-.4,5.45-.8,10.79c.82.01,1.64.07,2.46.15l1.08-10.69ZM107.34,53.27c.69-.48,1.38-.93,2.07-1.37l-4.06-11.62-1.79-5.16-2.72.99,1.93,5.11,4.57,12.06ZM138.87,28.89l.06,5.47.13,10.17,2.48.27.14-10.44.08-5.47c-.48-.02-.97-.02-1.45-.02s-.96,0-1.44.02ZM130.66,44.38c.84-.08,1.67-.14,2.49-.16l-.71-9.58-.4-5.45c-.96.06-1.91.15-2.87.25l.54,5.45.95,9.49ZM90.24,70.74c.38-.13.75-.27,1.14-.38.17-.37.36-.72.55-1.08l-11.25-16.52-3.07-4.52h-.02c-.79.54-1.56,1.1-2.35,1.67l3.2,4.45,11.8,16.39ZM66.02,134.8c.09-.65.21-1.29.35-1.91l-31.49-3.17-5.45-.54c-.09.96-.19,1.91-.25,2.87l5.45.42,31.38,2.33ZM114.58,49.02c.75-.36,1.51-.7,2.28-1.03l-2.64-10.39-1.36-5.3c-.93.23-1.87.48-2.79.74l1.5,5.27,3.02,10.71ZM72.21,123.02c.56-.49,1.15-.96,1.77-1.39l-35.67-10.05-5.26-1.48c-.26.93-.51,1.85-.74,2.78l5.3,1.36,34.61,8.79ZM75.98,117.84c.12-.59.24-1.17.36-1.75l-35.12-13.3-5.13-1.93c-.34.9-.66,1.81-.97,2.72l5.16,1.79,35.7,12.48ZM67.94,128.53c.3-.6.63-1.18,1-1.74l-32.74-6.21-5.37-1.02c-.19.94-.36,1.88-.49,2.84l5.39.88,32.22,5.25ZM76.43,111.53c-.18-.75-.35-1.51-.5-2.26l-31.06-14.98-4.93-2.36c-.43.86-.83,1.73-1.24,2.61l4.99,2.24,32.73,14.75ZM75.4,96.11c.09-.76.19-1.51.32-2.27l-21.38-15.38-4.45-3.21c-.56.79-1.13,1.57-1.65,2.38l4.52,3.07,22.63,15.42ZM79.73,81.3c.28-.59.57-1.18.87-1.77.06-.11.12-.2.17-.3l-14.38-14.76-3.81-3.92c-.69.66-1.37,1.34-2.05,2.04l3.92,3.83,15.28,14.89ZM75.23,103.87c-.05-.77-.08-1.54-.1-2.31l-25.88-15.39-4.71-2.81c-.48.82-.97,1.65-1.44,2.5l4.77,2.69,27.35,15.32ZM76.95,88.53c.22-.73.45-1.46.7-2.19l-17.59-15.15-4.15-3.57c-.63.73-1.25,1.47-1.85,2.21l4.25,3.46,18.64,15.24ZM83.9,74.84c.53-.55,1.09-1.04,1.67-1.51l-12.29-15.03-3.46-4.23c-.76.6-1.48,1.22-2.22,1.85l3.58,4.15,12.72,14.76ZM122.42,46.01c.8-.23,1.6-.45,2.41-.64l-1.57-9.65-.88-5.39c-.96.14-1.9.31-2.84.49l1.02,5.37,1.86,9.81ZM202.02,116.95c-.09.33-.19.65-.32.96.08.29.13.59.19.89l38.47-13.44,5.16-1.81c-.31-.91-.65-1.81-.99-2.7l-5.11,1.93-37.4,14.16ZM214.21,104.68c-.55,1.11-1.14,2.15-1.79,3.14l24.51-11.04,4.97-2.24c-.39-.88-.8-1.76-1.22-2.62l-4.93,2.38-21.55,10.39ZM201.94,122.95c-.08.45-.18.9-.33,1.35.14.11.25.24.39.35l41.03-10.42v-.02l5.3-1.34c-.23-.93-.48-1.87-.74-2.79l-5.26,1.5-40.38,11.38ZM160.07,36.19l1.02-5.37c-.94-.19-1.9-.36-2.86-.49l-.88,5.39-1.73,10.61,2.47.27,1.97-10.4ZM108.11,112.65s.05,0,.07-.01l-.02-.02s-.04,0-.05,0v.03ZM204.88,128.06c.31.52.58,1.05.81,1.6l39.22-6.39,5.39-.88c-.14-.96-.31-1.91-.49-2.86l-5.37,1.02-39.55,7.51ZM216.12,85.75l1.92,1.63,9.83-6.69,4.52-3.09c-.54-.79-1.1-1.57-1.67-2.36l-4.45,3.2-10.16,7.31ZM206.94,133.62c.14.57.26,1.14.36,1.71l38.69-2.88,5.45-.4c-.06-.96-.15-1.91-.25-2.87l-5.45.54-38.81,3.9ZM166,49.16l-1.44.71c.37.14.75.29,1.12.43l.32-1.14ZM216.93,94.75c.01.92-.05,1.84-.2,2.76l16.01-8.97,4.76-2.67c-.46-.85-.94-1.68-1.44-2.5l-4.69,2.79-14.44,8.59ZM210.91,81.33l.78.66,10.63-8.69,4.25-3.47c-.62-.74-1.23-1.48-1.87-2.21l-4.14,3.58-10.54,9.08c.3.35.6.69.88,1.05ZM180.3,57.4l6.04-12.52,2.38-4.93c-.86-.42-1.74-.83-2.62-1.22l-2.24,4.97-5.66,12.57,2.11,1.13ZM187.04,61.01l-.57.42c.18.12.36.25.53.37l7.46-12.54,2.79-4.69c-.82-.49-1.65-.97-2.5-1.44l-2.67,4.76-6.82,12.18,1.77.95ZM169.06,38.31l1.5-5.27c-.93-.26-1.87-.51-2.79-.74l-1.36,5.3-2.44,9.62,2.51.27,2.59-9.19ZM177.84,41.21l1.93-5.11c-.9-.34-1.79-.68-2.7-.99l-1.81,5.16-4.29,12.27c.72.34,1.45.69,2.17,1.06l4.69-12.39ZM193.44,66.51l8.75-12.16,3.2-4.45c-.79-.57-1.57-1.13-2.36-1.67l-3.09,4.52-8.37,12.29c.63.47,1.25.96,1.87,1.46ZM206.04,76.28l10.12-9.86,3.92-3.83c-.66-.69-1.34-1.37-2.04-2.04l-3.83,3.92-10.06,10.33c.64.47,1.27.96,1.88,1.48ZM199.49,71.61l9.95-11.55,3.58-4.14c-.73-.63-1.47-1.25-2.21-1.87l-3.47,4.25-9.63,11.79,1.79,1.52ZM156.67,198.36c-.49.2-.97.39-1.47.58l11.2,44.09,1.36,5.3c.93-.23,1.85-.48,2.78-.74l-1.48-5.27-12.39-43.96ZM183.16,175.34c-.26.34-.52.69-.78,1.04-.03.04-.06.07-.08.11l38.25,32.95,4.15,3.58c.63-.74,1.25-1.47,1.85-2.22l-4.23-3.46-39.17-32.01ZM177.12,183.05c-.32.37-.64.75-.97,1.12l31.18,38.15,3.46,4.25c.74-.6,1.48-1.22,2.21-1.85l-3.57-4.15-32.31-37.51ZM173.7,186.72c-.35.35-.71.72-1.07,1.06l27.3,40.09,3.07,4.52c.8-.53,1.59-1.1,2.38-1.65l-3.21-4.45-28.48-39.57ZM180.23,179.22c-.3.39-.59.77-.89,1.16l34.89,35.8,3.83,3.92c.7-.68,1.37-1.36,2.04-2.05l-3.92-3.81-35.94-35.02ZM169.96,190.18c-.39.33-.79.64-1.19.95l23.31,41.61,2.69,4.77c.85-.46,1.68-.96,2.5-1.44l-2.81-4.71-24.49-41.19ZM151.65,200.1c-.51.14-1.02.26-1.53.38l7.24,44.43.88,5.39c.96-.14,1.9-.31,2.84-.49l-1.02-5.37-8.41-44.33ZM141.11,201.95c-.53.04-1.07.09-1.6.12l-.57,44.2-.06,5.47c.48.02.96.02,1.44.02s.97,0,1.45-.02l-.08-5.47-.57-44.32ZM161.42,196.06c-.46.25-.91.51-1.37.75l15.22,43.54,1.79,5.16c.91-.31,1.82-.63,2.72-.97l-1.93-5.13-16.42-43.35ZM165.87,193.32c-.43.3-.86.57-1.29.85l19.27,42.76,2.24,4.99c.88-.4,1.74-.8,2.61-1.24l-2.36-4.93-20.46-42.43ZM146.44,201.27c-.53.09-1.05.18-1.58.26l3.31,44.46.42,5.45c.96-.06,1.91-.15,2.87-.25l-.54-5.45-4.47-44.47ZM207.15,145.3c-.12.57-.26,1.14-.43,1.7l39.02,3.93,5.45.54c.09-.96.19-1.91.25-2.87l-5.45-.4-38.84-2.89ZM243.03,166.41l-41.27-10.48c-.42.46-.85.91-1.31,1.34l41.87,11.8,5.26,1.5c.26-.93.51-1.87.74-2.79l-5.3-1.34v-.02ZM205.2,150.9c-.27.53-.55,1.06-.86,1.57l40.09,7.6,5.37,1.02c.19-.94.36-1.88.49-2.84l-5.39-.88-39.71-6.47ZM251.74,138.87l-5.47.08-38.56.5c.01.59,0,1.17-.03,1.75l38.59.5,5.47.06c.02-.48.02-.96.02-1.44s0-.97-.02-1.45ZM188.6,167.37c-.26.45-.5.86-.73,1.23l43.48,25.86v.02l4.71,2.78c.49-.82.97-1.65,1.44-2.49l-4.77-2.69-44.13-24.72ZM186.05,171.47c-.09.13-.19.26-.27.37-.19.27-.38.53-.58.79l41.07,29.56,4.45,3.2c.57-.79,1.13-1.56,1.67-2.36v-.02l-4.52-3.07-41.81-28.47ZM196.75,160.04c-.57.34-1.14.67-1.75.98,0,0-.01,0-.02,0l44.43,16.83,5.11,1.93c.34-.9.68-1.81.99-2.72l-5.16-1.79-43.6-15.23ZM190.94,163.14c-.22.43-.45.86-.67,1.27l45.49,21.93,4.93,2.36c.42-.86.83-1.73,1.22-2.61l-4.97-2.24-45.99-20.72ZM93.06,186.36l-28.59,27.86-3.92,3.83c.66.69,1.34,1.37,2.04,2.04l3.83-3.92,27.99-28.73c-.46-.35-.9-.71-1.35-1.08ZM82.41,174.75c-.33-.48-.65-.97-.96-1.46l-33.55,18.79-4.79,2.69c.46.83.94,1.67,1.44,2.49l4.71-2.79,33.15-19.71ZM79.41,169.68c-.27-.52-.53-1.04-.78-1.57l-34.93,15.74-4.99,2.25c.4.88.8,1.74,1.24,2.61l4.93-2.38,34.53-16.65ZM77.02,164.29c-.2-.55-.41-1.09-.59-1.65l-36.15,12.63-5.16,1.79c.31.91.63,1.82.97,2.72l5.13-1.93,35.81-13.56ZM85.96,179.43c-.38-.44-.75-.88-1.11-1.34l-32.08,21.85-4.52,3.07c.54.79,1.08,1.57,1.67,2.36l4.43-3.2,31.62-22.76ZM68.17,147.58c-.32-.59-.61-1.2-.87-1.83l-32.66,2.43-5.45.42c.06.96.15,1.91.25,2.87l5.45-.54,33.28-3.35ZM88.75,182.46l-30.44,24.88-4.25,3.46c.6.74,1.22,1.48,1.85,2.21l4.15-3.57,29.93-25.78c-.42-.4-.84-.8-1.24-1.2ZM75.26,158.65c-.14-.56-.29-1.13-.41-1.7l-37.24,9.46-5.3,1.36c.23.93.48,1.85.74,2.78l5.26-1.48,36.95-10.41ZM72.73,153.14c-.58-.49-1.12-1-1.63-1.54l-35.38,5.77-5.39.88c.14.96.31,1.9.49,2.84l5.37-1.02,36.53-6.93ZM112.76,197.67l-.09-.03-18.38,38.11-2.38,4.93c.86.43,1.73.83,2.61,1.24l2.25-4.99,17.45-38.73c-.49-.17-.98-.34-1.47-.52ZM117.93,199.4l-15.15,40.01-1.93,5.13c.9.34,1.81.66,2.72.97l1.79-5.16,14.15-40.5c-.53-.14-1.05-.29-1.58-.45ZM129.7,245.74l-.54,5.45c.96.09,1.91.19,2.87.25l.42-5.45,3.26-43.84c-.54,0-1.08-.02-1.62-.04l-4.39,43.63ZM123.27,200.76l-11.71,41.56-1.48,5.27c.93.26,1.85.51,2.78.74l1.36-5.3,10.65-41.94c-.53-.1-1.06-.22-1.6-.33ZM128.67,201.67l-8.11,42.76-1.02,5.37c.94.19,1.88.36,2.84.49l.88-5.39,7.02-43.05c-.53-.05-1.07-.13-1.61-.19ZM103.46,193.38c-.33-.2-.63-.38-.94-.56l-24.08,33.46-3.2,4.43c.79.59,1.57,1.13,2.36,1.67l3.07-4.52,23.28-34.18c-.17-.1-.34-.21-.5-.3ZM97.69,189.8l-26.5,30.76-3.57,4.15c.73.63,1.47,1.25,2.21,1.85l3.47-4.25,25.8-31.57c-.48-.31-.94-.63-1.41-.95ZM66.05,141.28c-.1-.63-.18-1.27-.22-1.93l-31.47-.41-5.47-.08c-.02.48-.02.97-.02,1.45s0,.96.02,1.44l5.47-.06,31.69-.41ZM107.48,195.51l-21.32,35.85-2.79,4.71c.82.49,1.65.97,2.49,1.44l2.69-4.79,20.46-36.53c-.55-.24-1.05-.47-1.52-.68Z"/>
    <g>
      <path class="cls-2" d="M163.56,97.55c9.34-1.19,17.58.85,25.51,4.62,1.07.51,2.18.95,3.3,1.36.53.19,1.09.08,1.39-.46.32-.57.01-1.07-.44-1.38-1.1-.73-2.22-1.46-3.39-2.07-7.57-3.96-15.72-5.42-24.18-5.58-4.25-.08-8.49.23-12.73.21-8.36-.03-16.71-.33-25.07-.54-7.36-.19-14.7-.59-22.03-1.27-4.17-.39-6.64-3.18-7.43-7.08-1.19-5.91.13-11.27,4.13-15.76,7.05-7.91,15.44-13.72,26.05-15.8,2.51-.49,5.04-.74,8.11-.41-4.41,2.16-8.11,4.56-11.31,7.66-1.47,1.43-2.83,2.98-4.17,4.54-.47.55-1.27,1.3-.38,2.04.8.67,1.57.21,2.25-.5,3.46-3.62,7.45-6.57,11.79-9.06,6.01-3.44,12.14-4.74,18.99-2.35,5.44,1.9,10.9,3.67,16.17,6.49-1.02.75-2.11.66-3.07.87-5.81,1.27-11.31,3.31-16.42,6.36-.4.24-.8.48-1.17.75-.63.47-1.51,1-1.01,1.89.55.98,1.5.54,2.27.12,3.69-1.99,7.55-3.55,11.59-4.66,3.65-1,7.4-1.5,11.16-1.91,1.78-.19,3.33.14,4.85,1.19,3.54,2.43,7.15,4.75,10.46,7.57-4.31-.94-8.63-1.47-13.02-1.25-1.53.08-3.04.29-4.45.91-.8.35-1.33.96-1.05,1.89.33,1.1,1.12.57,1.8.42,8.54-1.93,16.62.04,24.02,3.99,4.56,2.44,8.18,6.51,10.83,11.18,1.03,1.82,1.26,3.71.58,5.74-1.05,3.12-2.52,5.97-4.85,8.34-.93.95-2.03,1.54-3.33,1.58-12.72.42-24.51-2.68-35.74-9.65Z"/>
      <path class="cls-2" d="M184.61,116.26c-1.84-.15-3.68-.3-5.52-.47-1.22-.11-2.31-.49-2.2-1.97.11-1.46,1.05-2.43,2.51-2.23,3.83.52,7.63.51,11.46.04,1.42-.17,2.28.64,2.48,2,.22,1.46-.74,1.98-2,2.14-2.23.28-4.46.5-6.72.5Z"/>
      <path class="cls-2" d="M182.88,124.68c-.79,0-1.6.05-2.38-.04-1.35-.15-1.96-1.03-1.91-2.33.06-1.33.88-1.82,2.15-1.74,3.09.18,6.06-.32,8.9-1.58,1.41-.62,2.64-.38,3.27,1.17.61,1.51-.39,2.15-1.59,2.66-2.7,1.16-5.48,1.96-8.45,1.85Z"/>
      <path class="cls-2" d="M142.25,128.65c.06-2.45,1.61-4.25,3.61-4.21,1.88.04,3.4,1.87,3.31,4-.09,2.37-1.82,4.51-3.66,4.51-1.79,0-3.32-2-3.26-4.3Z"/>
      <path class="cls-2" d="M113.23,126.07c.06,1.02-.2,2.1-.95,3.02-1.03,1.27-2.76,1.52-4.08.6-2.35-1.63-1.93-6.63.65-7.85,2.33-1.1,4.43.86,4.38,4.23Z"/>
      <path class="cls-2" d="M144.38,115.49c-1.38.16-2.62-.02-2.82-1.69-.21-1.73.94-2.26,2.41-2.49,1.35-.21,2.66-.08,3.92.35,1.2.41,1.91,1.34,1.5,2.63-.39,1.21-1.35,1.81-2.66,1.43-.78-.22-1.55-.31-2.35-.23Z"/>
      <path class="cls-2" d="M108.11,108.31c.24.03.76.07,1.28.17,1.23.23,1.86,1.07,1.76,2.25-.1,1.19-.88,1.91-2.13,1.89-1.06-.02-2.08.05-3.12.31-1.11.28-1.92-.37-2.32-1.39-.43-1.1.06-1.94,1.01-2.49.99-.57,2.1-.74,3.53-.74Z"/>
      <path class="cls-2" d="M197.44,133.35c-.34-.93-1.21-1.98-2.1-2.34-4.07-1.63-8.09-1.07-12.04.85.73.61,1.51.95,2.3.93,6.13-.08,9.48,4.15,7.88,10.12-1.33,4.98-5.34,6.71-9.82,7.54-1.73.32-2.6,1.03-3.23,2.58-2.7,6.73-6.19,13.01-10.85,18.59-4.68,5.63-9.64,11.09-16.49,14.01-16.09,6.82-31.46,3.93-45.75-4.96-13.17-8.17-20.55-20.26-21.49-35.99-.6-10.04.89-19.84,3.35-29.5,1.73-6.92,3.43-13.85,8.29-19.5.62-.75.36-2.58.02-3.77-.58-1.98-1.75-3.79-2.28-5.77-.6-2.28-.77-4.66-1.13-7.14-2.76.67-4.34,2.54-5.46,4.72-4.56,8.73-5.75,17.84-2.94,27.4.28.99.44,2.14.24,3.15-.69,3.81-1.49,7.62-2.4,11.39-.18.73-.91,1.61-1.59,1.88-4.31,1.73-6.78,4.86-7.08,9.46-.32,4.76,1.65,8.45,5.89,10.71,1.27.67,1.98,1.41,2.16,2.84,1.98,15.38,10.3,26.41,23.51,34.06.85.48,1.65.99,2.66,1.59,0,0,2.8,1.53,6.17,2.74.04,0,.06.02.1.04.06.02.12.02.2.06,10.02,3.87,20.26,5.22,30.91,3.02,9.3-1.92,16.65-7.02,22.87-13.85,2.99-3.31,5.53-7,8.27-10.53.38-.48.73-.99,1.31-1.79,0,0,3.39-5.28,5.42-9.86.06-.18.14-.34.22-.5.02-.06.06-.14.08-.2l.02.04c.36-.52.95-.87,1.82-1.05,1.53-.3,3.11-.73,4.5-1.41,8.15-4.05,8.87-12.92,6.47-19.56ZM82.04,143.71c-2.2-1.41-3.04-3.29-3.11-5.63-.04-2.68.89-4.84,3.65-6.35-.18,4.09-.36,7.86-.55,11.98Z"/>
      <path class="cls-2" d="M128.11,127.21c-1.22-.85-2.32-.44-3.17.71-2.04,2.79-4.1,5.55-6.09,8.37-1.24,1.76-.54,3.3,1.58,3.45,2.51.18,5.03.18,7.54.25,1.38.04,2.23-.6,2.21-2.03-.01-1.42-.89-2.04-2.24-2.06-1.07-.01-2.14,0-3.78,0,1.59-2.18,2.8-3.86,4.02-5.53.8-1.09,1.28-2.22-.08-3.17Z"/>
      <path class="cls-2" d="M125,156.02c-.28,1.57.89,1.97,2.1,2.14.93.13,1.87.13,2.8.18,3.07.08,5.85-.65,8.22-2.69,1.09-.93,1.49-2.02.53-3.18-.9-1.09-1.89-.72-3.06-.09-1.6.86-3.37,1.49-5.13,1.97-.85.23-1.85-.13-2.78-.22-1.44-.14-2.43.47-2.69,1.9Z"/>
    </g>
  </g>
  <g>
    <g>
      <path class="cls-3" d="M113.04,233.57c-2.09,0-3.86-.25-4.1-.28l-.2-.03c-4.37-.8-7.66-3.76-8.77-7.91h0s-.05-.17-.11-.43c-.07-.29-.19-.82-.27-1.13l-2.63-7.15h2.97c-.46-1.96-.36-3.8-.26-4.76l.02-.16c.41-2.93,2.04-5.55,4.48-7.21l.43-.29c2.39-1.49,5.33-2.18,8.95-2.16,1.43.01,2.78.12,4.02.32l.52.11c3.05.82,5.51,2.76,6.92,5.48h0c.51,1,.97,2.6,1.27,3.81l1.68,6.71h-1.38c1.28,4.75-.73,8.9-1.76,10.26h0c-1.15,1.6-4.01,4.36-10.22,4.77-.53.03-1.05.05-1.56.05ZM99.63,223.91s0,.01,0,.02v-.02ZM104.34,204.37s-.04.02-.06.04c.02-.01.04-.02.06-.04Z"/>
      <path class="cls-3" d="M112.31,233.02h-16.4c-1.69,0-3.23-.7-4.42-1.93-1.2,1.21-2.79,1.93-4.53,1.93h-14.99l5.29-8.33c.05-.09.11-.18.16-.28l4.03-15.01-2.53-6.93h21.94s5.85,21.87,5.85,21.87c.1.2.16.3.17.31l5.43,8.37Z"/>
      <path class="cls-3" d="M135.01,233.4h-3.85c-6.45,0-11.7-5.24-11.7-11.69v-11.78c-.03-.12-.05-.18-.05-.18l-2.63-7.27,13.97-.02c1.02,0,1.96.23,2.8.65.77-.39,1.64-.61,2.57-.64h.18s13.13,0,13.13,0l-2.66,7.28s-.03.07-.05.18v11.79c0,6.44-5.25,11.69-11.7,11.69Z"/>
      <path class="cls-3" d="M186.51,233.03h-29.2l2.54-7.22s.03-.1.06-.18v-15.7c-.02-.07-.04-.13-.06-.18l-2.54-7.22h29.2v30.5Z"/>
      <path class="cls-3" d="M195.69,232.96h-13.42l2.66-7.28h0s.02-.05.04-.15v-8.21s-6.04,2.1-6.04,2.1l-.11-16.96h29.84v17.18l-6.26-2.33.02,8.57v.46c-.16,3.78-3.05,6.63-6.74,6.63Z"/>
      <path class="cls-3" d="M150.71,232.96h-13.4l2.6-7.25s.03-.09.05-.18v-15.7c-.02-.08-.04-.13-.05-.16l-2.54-7.22h19.2c5.9,0,10.69,4.8,10.69,10.69v1.75c0,5.62-4.36,10.24-9.88,10.66v.7c-.08,3.15-2.43,6.57-6.61,6.69h-.08Z"/>
      <path class="cls-3" d="M133.74,211.95c-1.96,0-3.92-.74-5.41-2.23l-.31-.31c-1.42-1.42-2.22-3.35-2.21-5.4,0-2.05.8-3.97,2.25-5.42l4.37-4.4,11.13,11.13-4.4,4.4c-1.49,1.49-3.46,2.24-5.42,2.24ZM135.75,206.22l-.03.03s.02-.02.03-.03ZM134.32,203.74l1.89,1.87c.27-.47.43-1.03.43-1.59,0-.69-.23-1.38-.65-1.93l-1.67,1.64ZM132.44,201.86l1.86,1.85,1.66-1.67s-.07-.08-.1-.12c-1.04-.94-2.56-1.06-3.74-.38l.31.31ZM135.72,201.77l.03.03s-.02-.02-.03-.03Z"/>
    </g>
    <g>
      <path class="cls-2" d="M119.76,217.32c-.8-.71-2.1-1.56-4.12-2.15-.78-.23-1.44-.46-1.94-.68-.52-.23-.94-.46-1.18-.71-.48-.48-.37-1.16-.2-1.47.21-.47,1.9-1.3,3.23-.1,0,0,.15.11.3.3l.11.14s.18.45.98.44l4.09-.02c-.46-1.85-.8-2.58-.83-2.63-.5-.96-1.5-2.2-3.51-2.74-.98-.16-2.06-.24-3.2-.25-2.57-.03-4.54.41-6.03,1.34-.04.04-.09.07-.15.11-1.24.81-2.06,2.1-2.26,3.55-.16,1.43,0,3.5.92,4.65,1.42,1.76,4.17,2.7,4.47,2.8.03,0,2.74.66,3.55,1.64.15.18.3.52.3.81,0,.96-1.21,1.39-1.21,1.39-.24.07-.73.1-1.06.05-1.25-.19-1.59-1.15-1.59-1.15,0,0-.14-.6-1.07-.6h-4.63c.11.31.45,1.81.47,1.88.27,1,1.25,3.39,4.52,3.99.36.05,2.5.32,4.52.19,4.98-.33,6.24-2.59,6.25-2.62l.02-.03s2.12-3.25.38-6.79c-.03-.05-.33-.63-1.13-1.35Z"/>
      <path class="cls-2" d="M101.59,226.21l-.11-.42-4.79-17.9h-10.03c.11.31.25.78.38,1.44l.02.08-.02.07-4.53,16.86c-.23.48-.45.9-.68,1.26h5.12c.97,0,1.26-1.58,1.26-1.58l2.67-12.84c.13-.62,1.02-.62,1.15,0l1.23,5.95h-2.29l.55,2.25h2.21l.97,4.7s.49,1.52,1.21,1.52h6.42c-.19-.29-.44-.73-.71-1.33l-.02-.05Z"/>
      <path class="cls-2" d="M135.34,209.32h0s0,.06,0,.06l.04,12.53c0,1.01-.82,1.83-1.83,1.83s-1.82-.82-1.82-1.82v-12.6s0-1.44-.98-1.44h-6.24c.11.31.25.78.38,1.44v.05s0,12.33,0,12.33c0,3.46,2.81,6.27,6.27,6.27h3.85c3.46,0,6.27-2.81,6.27-6.27v-12.35c.13-.69.27-1.16.39-1.47h-5.37c-.95.03-.96,1.44-.96,1.44Z"/>
      <path class="cls-2" d="M164.97,207.95c.1.29.24.74.36,1.37v.05s0,16.83,0,16.83v.03c-.12.63-.26,1.08-.36,1.37h16.13v-7.75h-4.57c-.39,0-.7.31-.7.7v3.47h-3.2c-.39,0-.71-.32-.71-.71v-4.83h2.93v-1.95h-2.93v-4.29c0-.39.32-.71.71-.71h3.2v3.09c0,.39.31.7.7.7h4.57v-7.38h-16.13Z"/>
      <path class="cls-2" d="M184.25,207.89v3.95c.3-.11.76-.25,1.41-.37h.06s4.13,0,4.13,0c.31,0,.56.25.56.56v14.07c-.13.67-.26,1.13-.38,1.44h5.66c1.25,0,1.31-1.42,1.31-1.42v-.05s-.01-14.05-.01-14.05c0-.31.25-.56.56-.56h4.27c.67.12,1.13.26,1.43.37v-3.95h-19Z"/>
      <path class="cls-2" d="M156.58,207.89h-11.55c.1.29.24.73.35,1.33v.05s0,16.83,0,16.83v.03c-.12.65-.26,1.11-.37,1.41h5.61c1.32-.04,1.35-1.42,1.35-1.42v-.05s0-14.61,0-14.61h.92c1.31,0,2.37,1.06,2.37,2.37v.39c0,1.31-1.06,2.37-2.37,2.37h-.32v3.58h4c2.9,0,5.27-2.36,5.27-5.27v-1.75c0-2.9-2.37-5.27-5.27-5.27Z"/>
      <path class="cls-2" d="M132.15,205.88c.88.87,2.3.87,3.17,0l.56-.56-3.45-3.45-.56.56c-.88.87-.88,2.29,0,3.17l.27.27Z"/>
    </g>
  </g>
</svg>