<?xml version="1.0" encoding="UTF-8"?>
<svg id="_图层_1" data-name="图层 1" xmlns="http://www.w3.org/2000/svg" viewBox="0 0 280.63 280.63">
  <defs>
    <style>
      .cls-1 {
        fill: #534588;
      }
    </style>
  </defs>
  <path class="cls-1" d="M208.08,140.57c.28.28.66.43,1.03.43h9.54v-15.4h-33.67c.22.62.5,1.54.74,2.87v.1s.01,35.15.01,35.15v.06c-.26,1.32-.54,2.24-.76,2.86h33.67v-16.18h-9.61c-.35.01-.7.16-.96.42-.28.29-.43.66-.43,1.03v7.25h-6.67c-.82,0-1.48-.66-1.48-1.48v-10.08h6.11v-4.07h-6.11l-.02-8.97c0-.82.69-1.48,1.51-1.48h6.67v6.46c0,.37.14.75.43,1.03ZM225.37,125.45v8.25c.64-.24,1.6-.51,2.94-.76h.12s8.62-.01,8.62-.01h0c.31-.03.62.08.86.31.24.24.34.56.31.86v29.38c-.27,1.39-.55,2.36-.79,3.01h11.15c.87,0,1.74-.34,2.41-1,.58-.57.9-1.3.99-2.05h0v-29.33s-.02-.07-.02-.1c0-.27.11-.55.31-.76.23-.24.56-.34.86-.31h8.91c1.39.26,2.35.54,2.99.78v-8.25h-39.67ZM128.12,125.45c-1.36.15-2.43,1.28-2.47,2.68v6.53h.02l.05,20.09c0,2.1-1.71,3.82-3.82,3.82s-3.81-1.72-3.81-3.81v-26.3s.01-.09,0-.24h0c-.02-.21-.05-.53-.14-.88-.33-1.02-1.23-1.77-2.33-1.89h-12.61c.24.65.53,1.63.79,3v.11s0,25.75,0,25.75c0,7.22,5.87,13.09,13.1,13.09h8.03c7.23,0,13.1-5.87,13.1-13.09v-25.78c.27-1.44.58-2.43.81-3.08h-10.72ZM168.02,125.45h-24.12c.22.62.5,1.52.74,2.78v.11s0,35.14,0,35.14v.06c-.26,1.35-.55,2.31-.78,2.94h11.13c.87,0,1.74-.34,2.41-1,.58-.57.9-1.3.99-2.05h0c0-.07.01-.12.02-.19v-30.32h1.92c2.74,0,4.95,2.22,4.95,4.95v.81c0,2.74-2.22,4.95-4.95,4.95h-.66v7.47h8.35c6.07,0,11.01-4.93,11.01-11.01v-3.64c0-6.05-4.96-11.01-11.01-11.01ZM119.56,112.88l-1.17,1.18c-1.83,1.82-1.83,4.79,0,6.62l.56.57c1.83,1.83,4.8,1.83,6.62,0l1.18-1.17-7.2-7.2ZM95.44,147.98c-.05-.11-.68-1.32-2.35-2.82-1.67-1.49-4.38-3.26-8.6-4.49-1.63-.49-3-.96-4.06-1.42-1.09-.49-1.95-.96-2.47-1.48-1-1-.77-2.42-.41-3.06.45-.99,3.97-2.71,6.75-.21,0,0,.31.24.62.64l.23.29s.37.94,2.04.93l8.54-.03c-.97-3.87-1.67-5.39-1.73-5.48-1.03-2-3.14-4.6-7.33-5.72-2.04-.33-4.29-.51-6.68-.53-5.37-.06-9.49.86-12.59,2.8-.09.07-.2.15-.31.23-2.58,1.68-4.3,4.38-4.71,7.4-.33,2.98-.01,7.32,1.92,9.7,2.97,3.67,8.7,5.64,9.34,5.85.05.01,5.72,1.38,7.41,3.43.31.38.63,1.08.63,1.7,0,2-2.53,2.9-2.53,2.9-.49.15-1.52.2-2.21.1-2.61-.4-3.32-2.39-3.32-2.39,0,0-.29-1.26-2.23-1.26h-9.67c.24.65.94,3.78.98,3.93.56,2.08,2.6,7.07,9.43,8.32.74.11,5.23.67,9.44.39,10.4-.7,13.04-5.42,13.06-5.46l.03-.06c.06-.08,4.44-6.78.79-14.17ZM56.83,163.82l-.04-.1-.24-.88-9.99-37.38h-20.94c.24.65.53,1.63.79,3.01l.03.16-.04.15-9.45,35.19c-.45.96-.9,1.81-1.36,2.53h9.79c.87,0,1.74-.34,2.41-1,.35-.35.61-.75.77-1.18.04-.1.08-.21.1-.31.13-.4.18-.69.18-.69l5.57-26.81c.27-1.3,2.13-1.3,2.4,0l2.57,12.42h-4.79l1.14,4.69h4.62l2.02,9.79c.07.76.41,1.51.99,2.09.66.66,1.54,1,2.42,1h12.47c-.39-.61-.88-1.5-1.42-2.67Z"/>
</svg>